<?xml version="1.0" encoding="UTF-8"?><svg xmlns="http://www.w3.org/2000/svg" width="1280" height="450" viewBox="0 0 1280 450"><defs><style>.af,.ag,.ah,.ai,.aj,.ak{stroke:#b3b3b3;stroke-linecap:round;}.af,.ah,.ai,.aj,.ak{fill:none;}.af,.ai,.ak{stroke-miterlimit:10;}.af,.aj{stroke-width:3px;}.ag,.al,.am{fill:#fff;}.ag,.ah,.aj{stroke-linejoin:round;}.ag,.ah,.ak{stroke-width:8px;}.an{fill:#a87c4f;}.ao,.ap{fill:#404041;}.aq{fill:#c3996b;}.am,.ar,.ap,.as{fill-rule:evenodd;}.at{fill:#d68f99;}.au{fill:#603813;}.ar,.av{fill:#231f20;}.aw,.as{fill:#009345;}.ai{stroke-width:7px;}.aj{stroke-dasharray:0 4;}.ax{fill:#b3b3b3;}.ay{fill:#3b2314;}.az{fill:#8a5d3b;}</style></defs><g id="a"><rect class="al" x="949.42718" y="6.36335" width="133" height="133" rx="9.5" ry="9.5"/><path class="ax" d="m1072.92767,8.86327c3.85986,0,7,3.14017,7,7v114c0,3.85982-3.14014,7-7,7h-114c-3.85986,0-7-3.14018-7-7V15.86327c0-3.85983,3.14014-7,7-7h114m0-5h-114c-6.6001,0-12,5.4-12,12v114c0,6.60001,5.3999,12,12,12h114c6.59985,0,12-5.39999,12-12V15.86327c0-6.6-5.40015-12-12-12h0Z"/><rect class="at" x="244.42718" y="156.36335" width="58" height="58" rx="9.5" ry="9.5"/><path class="ax" d="m292.92755,158.86327c3.85986,0,7,3.14018,7,7v38.99998c0,3.85983-3.14014,7-7,7h-39c-3.85986,0-7-3.14017-7-7v-38.99998c0-3.85982,3.14014-7,7-7h39m0-5h-39c-6.59998,0-12,5.39998-12,12v38.99998c0,6.60001,5.40002,12,12,12h39c6.6001,0,12-5.39999,12-12v-38.99998c0-6.60002-5.3999-12-12-12h0Z"/><rect class="an" x="319.42718" y="156.36335" width="58" height="58" rx="9.5" ry="9.5"/><path class="ax" d="m367.92755,158.86327c3.85986,0,7,3.14018,7,7v38.99998c0,3.85983-3.14014,7-7,7h-39c-3.85986,0-7-3.14017-7-7v-38.99998c0-3.85982,3.14014-7,7-7h39m0-5h-39c-6.59998,0-12,5.39998-12,12v38.99998c0,6.60001,5.40002,12,12,12h39c6.6001,0,12-5.39999,12-12v-38.99998c0-6.60002-5.3999-12-12-12h0Z"/><rect class="aw" x="394.42718" y="156.36335" width="58" height="58" rx="9.5" ry="9.5"/><path class="ax" d="m442.92755,158.86327c3.85986,0,7,3.14018,7,7v38.99998c0,3.85983-3.14014,7-7,7h-39c-3.85986,0-7-3.14017-7-7v-38.99998c0-3.85982,3.14014-7,7-7h39m0-5h-39c-6.59998,0-12,5.39998-12,12v38.99998c0,6.60001,5.40002,12,12,12h39c6.6001,0,12-5.39999,12-12v-38.99998c0-6.60002-5.3999-12-12-12h0Z"/><rect class="au" x="244.42718" y="81.36335" width="58" height="58" rx="9.5" ry="9.5"/><path class="ax" d="m292.92755,83.86327c3.85986,0,7,3.14018,7,7v39c0,3.85982-3.14014,7-7,7h-39c-3.85986,0-7-3.14018-7-7v-39c0-3.85982,3.14014-7,7-7h39m0-5h-39c-6.59998,0-12,5.39999-12,12v39c0,6.60001,5.40002,12,12,12h39c6.6001,0,12-5.39999,12-12v-39c0-6.60001-5.3999-12-12-12h0Z"/><rect class="at" x="319.42718" y="81.36335" width="58" height="58" rx="9.5" ry="9.5"/><path class="ax" d="m367.92755,83.86327c3.85986,0,7,3.14018,7,7v39c0,3.85982-3.14014,7-7,7h-39c-3.85986,0-7-3.14018-7-7v-39c0-3.85982,3.14014-7,7-7h39m0-5h-39c-6.59998,0-12,5.39999-12,12v39c0,6.60001,5.40002,12,12,12h39c6.6001,0,12-5.39999,12-12v-39c0-6.60001-5.3999-12-12-12h0Z"/><path class="ax" d="m996.42767,18.80065c1.87915,0,3.63696.72293,4.94946,2.03568l27.57739,27.57722c1.31274,1.31275,2.03564,3.07059,2.03564,4.94971s-.7229,3.63696-2.03589,4.94975l-27.57715,27.57722c-1.3125,1.31271-3.07031,2.03564-4.94946,2.03564s-3.63696-.72298-4.94971-2.03568l-27.57739-27.57723c-1.31274-1.31275-2.03564-3.07059-2.03564-4.94971s.7229-3.63696,2.03589-4.94975l27.5769-27.57713c1.31299-1.31275,3.0708-2.03573,4.94995-2.03573m0-5.00001c-3.07593,0-6.15186,1.16673-8.48535,3.50017l-27.57715,27.57718c-4.66699,4.66691-4.66699,12.30364,0,16.97055l27.57715,27.57719c2.3335,2.33344,5.40942,3.50015,8.48535,3.50015s6.15186-1.16672,8.48511-3.50015l27.57715-27.57719c4.66699-4.66691,4.66699-12.30364,0-16.97055l-27.57715-27.57718c-2.33325-2.33344-5.40918-3.50017-8.48511-3.50017h0Z"/><path class="ax" d="m1072.92767,83.86327c3.85986,0,7,3.14018,7,7v39c0,3.85982-3.14014,7-7,7h-39c-3.85986,0-7-3.14018-7-7v-39c0-3.85982,3.14014-7,7-7h39m0-5h-39c-6.6001,0-12,5.39999-12,12v39c0,6.60001,5.3999,12,12,12h39c6.59985,0,12-5.39999,12-12v-39c0-6.60001-5.40015-12-12-12h0Z"/><rect class="aw" x="874.42718" y="156.36335" width="58" height="58" rx="9.5" ry="9.5"/><path class="ax" d="m922.92767,158.86327c3.85986,0,7,3.14018,7,7v38.99998c0,3.85983-3.14014,7-7,7h-39c-3.85986,0-7-3.14017-7-7v-38.99998c0-3.85982,3.14014-7,7-7h39m0-5h-39c-6.6001,0-12,5.39998-12,12v38.99998c0,6.60001,5.3999,12,12,12h39c6.59985,0,12-5.39999,12-12v-38.99998c0-6.60002-5.40015-12-12-12h0Z"/><rect class="an" x="949.42718" y="156.36335" width="58" height="58" rx="9.5" ry="9.5"/><path class="ax" d="m997.92767,158.86327c3.85986,0,7,3.14018,7,7v38.99998c0,3.85983-3.14014,7-7,7h-39c-3.85986,0-7-3.14017-7-7v-38.99998c0-3.85982,3.14014-7,7-7h39m0-5h-39c-6.6001,0-12,5.39998-12,12v38.99998c0,6.60001,5.3999,12,12,12h39c6.59985,0,12-5.39999,12-12v-38.99998c0-6.60002-5.40015-12-12-12h0Z"/><rect class="at" x="1024.42718" y="156.36335" width="58" height="58" rx="9.5" ry="9.5"/><path class="ax" d="m1072.92767,158.86327c3.85986,0,7,3.14018,7,7v38.99998c0,3.85983-3.14014,7-7,7h-39c-3.85986,0-7-3.14017-7-7v-38.99998c0-3.85982,3.14014-7,7-7h39m0-5h-39c-6.6001,0-12,5.39998-12,12v38.99998c0,6.60001,5.3999,12,12,12h39c6.59985,0,12-5.39999,12-12v-38.99998c0-6.60002-5.40015-12-12-12h0Z"/><rect class="aw" x="244.42718" y="6.36335" width="58" height="58" rx="9.5" ry="9.5"/><path class="ax" d="m292.92755,8.86326c3.85986,0,7,3.14018,7,7v39c0,3.85982-3.14014,7-7,7h-39c-3.85986,0-7-3.14018-7-7V15.86326c0-3.85982,3.14014-7,7-7h39m0-5h-39c-6.59998,0-12,5.4-12,12v39c0,6.6,5.40002,12,12,12h39c6.6001,0,12-5.4,12-12V15.86326c0-6.6-5.3999-12-12-12h0Z"/><line class="ak" x1="521.35373" y1="312.7667" x2="718.75275" y2="312.7667"/><polygon class="ag" points="550.22502 66.81952 621.39609 22.50546 844.30927 66.81952 550.22502 66.81952"/><polyline class="ah" points="689.92747 312.7667 623.41037 9.28249 620.72467 9.28249 554.20757 312.7667"/><line class="af" x1="607.56547" y1="69.32131" x2="640.77154" y2="88.49285"/><line class="af" x1="603.36349" y1="88.49285" x2="641.35237" y2="88.49285"/><line class="af" x1="603.36349" y1="88.49285" x2="646.19105" y2="113.21935"/><line class="af" x1="597.94399" y1="113.21935" x2="646.19105" y2="113.21935"/><line class="af" x1="597.94399" y1="113.21935" x2="653.18086" y2="145.11037"/><line class="af" x1="590.95417" y1="145.11037" x2="653.18086" y2="145.11037"/><line class="af" x1="590.95417" y1="145.11037" x2="662.19598" y2="186.24185"/><line class="af" x1="581.93906" y1="186.24185" x2="662.19598" y2="186.24185"/><line class="af" x1="581.93906" y1="186.24185" x2="673.82324" y2="239.2912"/><line class="af" x1="570.3118" y1="239.2912" x2="673.82324" y2="239.2912"/><line class="af" x1="570.3118" y1="239.2912" x2="688.81952" y2="307.71167"/><line class="aj" x1="785.41569" y1="68.16237" x2="785.41569" y2="130.50771"/><rect class="au" x="756.41546" y="128.75348" width="58" height="58" rx="9.5" ry="9.5"/><path class="ax" d="m804.91571,131.25368c3.85986,0,7,3.14018,7,7v39c0,3.85982-3.14014,7-7,7h-39c-3.85986,0-7-3.14018-7-7v-39c0-3.85982,3.14014-7,7-7h39m0-5h-39c-6.6001,0-12,5.39999-12,12v39c0,6.60001,5.3999,12,12,12h39c6.6001,0,12-5.39999,12-12v-39c0-6.60001-5.3999-12-12-12h0Z"/><path class="ax" d="m1148.68931,247.84181c-9.70898,0-17.6084-7.89941-17.6084-17.6084,0-9.70996,7.89941-17.60938,17.6084-17.60938,9.70996,0,17.60938,7.89941,17.60938,17.60938,0,9.70898-7.89941,17.6084-17.60938,17.6084Z"/><path class="al" d="m1148.68955,214.124c8.88251,0,16.10895,7.22644,16.10895,16.10892s-7.22644,16.10892-16.10895,16.10892-16.10889-7.22644-16.10889-16.10892,7.22644-16.10892,16.10889-16.10892m0-3c-10.55353,0-19.10889,8.55536-19.10889,19.10892s8.55536,19.10892,19.10889,19.10892,19.10895-8.55536,19.10895-19.10892-8.55536-19.10892-19.10895-19.10892h0Z"/><path class="ax" d="m1194.92759,233.10938c-9.70996,0-17.60938-7.89941-17.60938-17.60938,0-9.70898,7.89941-17.6084,17.60938-17.6084s17.60938,7.89941,17.60938,17.6084c0,9.70996-7.89941,17.60938-17.60938,17.60938Z"/><path class="al" d="m1194.92759,199.39112c8.88245,0,16.10889,7.22644,16.10889,16.10892s-7.22644,16.10892-16.10889,16.10892-16.10889-7.22644-16.10889-16.10892,7.22644-16.10892,16.10889-16.10892m0-3c-10.55359,0-19.10889,8.55536-19.10889,19.10892s8.5553,19.10892,19.10889,19.10892,19.10889-8.55536,19.10889-19.10892-8.5553-19.10892-19.10889-19.10892h0Z"/><path class="ax" d="m1241.16587,247.84181c-9.70996,0-17.60938-7.89941-17.60938-17.6084,0-9.70996,7.89941-17.60938,17.60938-17.60938,9.70898,0,17.6084,7.89941,17.6084,17.60938,0,9.70898-7.89941,17.6084-17.6084,17.6084Z"/><path class="al" d="m1241.16562,214.124c8.88245,0,16.10889,7.22644,16.10889,16.10892s-7.22644,16.10892-16.10889,16.10892-16.10895-7.22644-16.10895-16.10892,7.22644-16.10892,16.10895-16.10892m0-3c-10.55359,0-19.10895,8.55536-19.10895,19.10892s8.55536,19.10892,19.10895,19.10892,19.10889-8.55536,19.10889-19.10892-8.55536-19.10892-19.10889-19.10892h0Z"/><path class="ax" d="m1136.07489,275.37006c8.74768-4.39252,19.07812-7.6853,30.32593-9.75134-.50122-5.32666-4.99414-9.50934-10.44971-9.50934h-14.52344c-5.79004,0-10.5,4.70996-10.5,10.5v11.60059c1.62976-.97882,3.33569-1.93024,5.14722-2.8399Z"/><path class="al" d="m1132.42767,277.33307v-10.72412c0-4.96265,4.03748-9,9-9h14.5238c4.72571,0,8.60413,3.66333,8.96448,8.29828.98328-.19153,1.97144-.3761,2.96899-.54852-.63062-6.01807-5.75562-10.74976-11.93347-10.74976h-14.5238c-6.59998,0-12,5.39996-12,12v12.53076c.96643-.61438,1.96411-1.21735,3-1.80664Z"/><path class="ax" d="m1194.92767,263.09027c6.0437,0,11.98596.33484,17.76172.96613v-12.18042c0-5.79004-4.70996-10.5-10.5-10.5h-14.52344c-5.79004,0-10.5,4.70996-10.5,10.5v12.18042c5.77563-.63129,11.71802-.96613,17.76172-.96613Z"/><path class="al" d="m1178.66571,263.88892v-12.01288c0-4.96259,4.03748-9,9-9h14.52368c4.96265,0,9,4.03741,9,9v12.01288c1.00684.10022,2.00366.2182,3,.33691v-12.34979c0-6.59998-5.3999-12-12-12h-14.52368c-6.59998,0-12,5.40002-12,12v12.34979c.99646-.11871,1.99329-.23669,3-.33691Z"/><path class="ax" d="m1253.78033,275.37006c1.81165.90967,3.51746,1.86108,5.14734,2.8399v-11.60059c0-5.79004-4.70996-10.5-10.5-10.5h-14.52344c-5.45569,0-9.94861,4.18268-10.44995,9.50934,11.24805,2.06604,21.57837,5.35883,30.32605,9.75134Z"/><path class="al" d="m1224.93939,265.90723c.36011-4.63495,4.23865-8.29828,8.96436-8.29828h14.52368c4.96265,0,9,4.03735,9,9v10.72412c1.03589.58929,2.03369,1.19226,3,1.80664v-12.53076c0-6.60004-5.3999-12-12-12h-14.52368c-6.17773,0-11.30298,4.73169-11.93347,10.74976.99756.17242,1.98572.35699,2.96912.54852Z"/><path class="ax" d="m1194.92767,266.09027c-44.91553,0-81.32666,18.2832-81.32666,40.83673h162.65308c0-22.55353-36.41113-40.83673-81.32642-40.83673Z"/><path class="al" d="m1138.76727,280.73206c14.95093-7.50732,34.89575-11.64178,56.1604-11.64178s41.20947,4.13446,56.16028,11.64178c14.29407,7.17755,22.16614,16.48041,22.16614,26.19495h3c0-22.55353-36.41113-40.83673-81.32642-40.83673s-81.32666,18.2832-81.32666,40.83673h3c0-9.71454,7.87219-19.0174,22.16626-26.19495Z"/><rect class="al" x="1134.05999" y="6.09821" width="121.73535" height="164.78955" rx="9.5" ry="9.5"/><path class="ax" d="m1246.29486,8.59808c3.85986,0,7,3.1402,7,7v145.7895c0,3.8598-3.14014,7-7,7h-102.73462c-3.85986,0-7-3.1402-7-7V15.59808c0-3.8598,3.14014-7,7-7h102.73462m0-5h-102.73462c-6.6001,0-12,5.4-12,12v145.7895c0,6.60004,5.3999,12,12,12h102.73462c6.6001,0,12-5.39996,12-12V15.59808c0-6.6-5.3999-12-12-12h0Z"/><circle class="ax" cx="1152.3311" cy="28.49285" r="7.5"/><rect class="ax" x="1171.76655" y="25.15611" width="73.36714" height="6.67347" rx="3.33673" ry="3.33673"/><rect class="ax" x="1171.76655" y="55.15611" width="73.36714" height="6.67347" rx="3.33673" ry="3.33673"/><rect class="ax" x="1171.76655" y="85.15611" width="73.36714" height="6.67347" rx="3.33673" ry="3.33673"/><rect class="ax" x="1171.76655" y="115.15611" width="73.36714" height="6.67347" rx="3.33673" ry="3.33673"/><rect class="ax" x="1171.76655" y="145.15611" width="73.36714" height="6.67347" rx="3.33673" ry="3.33673"/><path class="ax" d="m1152.87063,64.5878l3.36539,1.76929c.85058.44718,1.8447-.2751,1.68226-1.22223l-.64273-3.74742c-.06451-.37611.06019-.75988.33344-1.02624l2.72266-2.65394c.68813-.67076.30841-1.83942-.64256-1.97761l-3.76263-.54674c-.37763-.05487-.70409-.29205-.87297-.63425l-1.6827-3.40952c-.42529-.86173-1.65409-.86173-2.07938,0l-1.6827,3.40952c-.16888.34219-.49533.57938-.87297.63425l-3.76263.54674c-.95098.13819-1.3307,1.30685-.64256,1.97761l2.72266,2.65394c.27326.26636.39795.65013.33344,1.02624l-.64273,3.74742c-.16245.94713.83168,1.66941,1.68226,1.22223l3.36539-1.76929c.33777-.17757.74128-.17757,1.07905,0Z"/><path class="ax" d="m1156.17614,80.99284h-7.69007c-.30017,0-.57755.16014-.72763.4201l-3.84504,6.6598c-.15009.25996-.15009.58024,0,.8402l3.84504,6.6598c.15009.25996.42746.4201.72763.4201h7.69007c.30017,0,.57755-.16014.72763-.4201l3.84504-6.6598c.15009-.25996.15009-.58024,0-.8402l-3.84504-6.6598c-.15009-.25996-.42746-.4201-.72763-.4201Z"/><path class="ax" d="m1151.60347,111.22102l-7.74786,13.41969c-.32339.56013.08085,1.2603.72763,1.2603h15.49572c.64679,0,1.05103-.70017.72763-1.2603l-7.74786-13.41969c-.32339-.56013-1.13188-.56013-1.45527,0Z"/><rect class="ax" x="1144.8311" y="140.99285" width="15" height="15" rx=".8402" ry=".8402"/><path class="ax" d="m928.17913,334.65387c5.12402-.85449,11.83398-1.58594,20.37305-1.58594,10.49219,0,18.17773,2.43945,23.05664,6.83105,4.51367,3.9043,7.19727,9.88184,7.19727,17.20117,0,7.44238-2.19531,13.29785-6.34375,17.56738-5.61133,5.97754-14.76074,9.02734-25.12988,9.02734-3.17188,0-6.10059-.12207-8.54004-.73145v32.93848h-10.61328v-81.24805Zm10.61328,39.64746c2.31836.61035,5.24609.85449,8.7832.85449,12.81055,0,20.61719-6.22168,20.61719-17.56738,0-10.85742-7.68555-16.10352-19.39648-16.10352-4.63574,0-8.17383.36621-10.00391.85449v31.96191Z"/><path class="ax" d="m990.76605,375.2779c0-6.9541-.12207-12.93164-.48828-18.4209h9.39355l.36621,11.58887h.4873c2.68457-7.92969,9.15039-12.93164,16.34766-12.93164,1.2207,0,2.07422.12207,3.0498.36621v10.12598c-1.09766-.24414-2.19629-.36621-3.65918-.36621-7.56445,0-12.93164,5.7334-14.39648,13.78516-.24316,1.46387-.4873,3.17188-.4873,5.00195v31.47461h-10.61328v-40.62402Z"/><path class="ax" d="m1082.87347,385.89118c0,21.83691-15.12695,31.35254-29.40039,31.35254-15.98145,0-28.30273-11.71094-28.30273-30.37598,0-19.76367,12.93066-31.35352,29.27832-31.35352,16.95703,0,28.4248,12.32227,28.4248,30.37695Zm-46.8457.61035c0,12.93164,7.44238,22.69043,17.93262,22.69043,10.24805,0,17.93359-9.6377,17.93359-22.93457,0-10.00391-5.00195-22.69141-17.68945-22.69141s-18.17676,11.71191-18.17676,22.93555Z"/><path class="ax" d="m1082.02288,432.98102c4.87891-.36621,9.14844-1.70801,11.71094-4.51367,2.92773-3.41602,4.02539-8.05176,4.02539-22.20312v-49.40723h10.73633v53.55566c0,11.4668-1.83008,18.9082-7.07617,24.27637-4.75781,4.75781-12.56543,6.70996-18.29883,6.70996l-1.09766-8.41797Zm27.69238-92.71582c.12207,3.53809-2.44043,6.58789-6.70996,6.58789-4.02539,0-6.58789-3.0498-6.58789-6.58789,0-3.78125,2.80664-6.70996,6.83203-6.70996,3.9043,0,6.46582,2.92871,6.46582,6.70996Z"/><path class="ax" d="m1132.04046,388.33161c.24414,14.5166,9.51562,20.49512,20.25195,20.49512,7.68555,0,12.32031-1.34277,16.34668-3.05078l1.83008,7.68652c-3.78223,1.70703-10.24707,3.65918-19.6416,3.65918-18.17676,0-29.03418-11.95508-29.03418-29.7666s10.49121-31.84082,27.69238-31.84082c19.27539,0,24.39844,16.95801,24.39844,27.81543,0,2.19531-.24316,3.90332-.36523,5.00195h-41.47852Zm31.47461-7.68652c.12207-6.83105-2.80566-17.44434-14.88281-17.44434-10.85742,0-15.61523,10.00293-16.46875,17.44434h31.35156Z"/><path class="ax" d="m1229.27288,413.70563c-2.80664,1.46387-9.02832,3.41602-16.95801,3.41602-17.81152,0-29.40039-12.07715-29.40039-30.13184,0-18.17773,12.44336-31.35352,31.71777-31.35352,6.34375,0,11.95605,1.58594,14.88379,3.0498l-2.44043,8.2959c-2.56055-1.46387-6.58691-2.80566-12.44336-2.80566-13.54102,0-20.86035,10.00293-20.86035,22.3252,0,13.66309,8.78418,22.08105,20.49512,22.08105,6.09961,0,10.125-1.58594,13.17578-2.92773l1.83008,8.05078Z"/><path class="ax" d="m1256.35491,339.89899v16.95801h15.37109v8.17285h-15.37109v31.84082c0,7.31934,2.07422,11.46777,8.05273,11.46777,2.80469,0,4.87891-.36621,6.2207-.73242l.48828,8.05176c-2.07422.85449-5.36719,1.46387-9.51562,1.46387-5.00195,0-9.02734-1.58594-11.58984-4.51367-3.04883-3.17188-4.14746-8.41797-4.14746-15.37109v-32.20703h-9.14941v-8.17285h9.14941v-14.15137l10.49121-2.80664Z"/><line class="ai" x1="566.40631" y1="378.13135" x2="798.66058" y2="378.13135"/><polygon class="ax" points="516.98248 378.13135 586.62701 406.58936 570.10113 378.13135 586.62701 349.68021 516.98248 378.13135"/><polygon class="ax" points="848.08441 378.13135 778.43988 406.58936 794.96575 378.13135 778.43988 349.68021 848.08441 378.13135"/></g><g id="b"><g id="c"><g id="d"><path class="an" d="m203.85708,279.4111l-11.13261-71.10505c-.83781-5.3513-8.09274-6.39385-10.40351-1.49498,0,0-12.6026,25.59799-18.53897,33.73461-3.22315,4.4178-21.39729,18.97978-21.39729,18.97978-2.94996,2.75323-2.02735,7.64055,1.7233,9.12885l21.28148,6.80372c-1.31871-6.15282-.96163-14.18361,2.76222-22.94086,7.22143-16.98262,10.87269-32.01493,17.14454-30.91176,6.27193,1.10309,4.16342,16.18217,5.56799,34.90666.77925,10.3885-2.78664,19.24869-7.16806,24.79862l12.70183,4.06072c3.95514,1.56947,8.11732-1.7563,7.45908-5.9603Z"/><path class="ay" d="m187.25767,203.65623c2.50453.00008,4.99655,1.64624,5.4668,4.64982l11.13261,71.10507c.5447,3.47886-2.21115,6.35615-5.41942,6.35615-.66872,0-1.35746-.12513-2.03966-.39585l-12.70183-4.06072c4.38143-5.54993,7.94731-14.41012,7.16806-24.79862-1.40458-18.72449.70394-33.80359-5.56799-34.90668-.21781-.03831-.43221-.05716-.64395-.05714-5.88555.00043-9.52996,14.57608-16.50059,30.96892-3.72385,8.75725-4.08093,16.78804-2.76222,22.94086l-21.28148-6.80372c-3.75065-1.4883-4.67326-6.37562-1.7233-9.12885,0,0,18.17414-14.56198,21.39729-18.97978,5.93638-8.13662,18.53897-33.73463,18.53897-33.73463,1.0138-2.14924,2.97904-3.1549,4.93671-3.15484m.00008-2.70291c-.00027,0,.00023,0-.00002,0-3.18412-.0001-6.01251,1.80262-7.38135,4.70465-.10536.2131-12.54725,25.43999-18.27792,33.29463-2.20832,3.02684-13.71105,12.70009-20.90386,18.46358l-.07958.06372-.07453.06958c-2.06653,1.9287-2.98722,4.73851-2.46286,7.5162.52435,2.77765,2.406,5.05839,5.03344,6.10098l.08585.03407.08799.02813,21.28148,6.80372,4.44366,1.42066-.97769-4.56162c-1.39557-6.51135-.4698-14.08178,2.60671-21.31674,1.76519-4.15121,3.34389-8.25095,4.73674-11.8681,2.99465-7.77685,6.72155-17.45541,9.27668-17.4556.05574,0,.11321.00532.17551.01627,2.3176.40763,2.52957,9.51115,2.71659,17.54301.10418,4.47361.22226,9.54413.6243,14.9038.62492,8.33092-1.84021,16.89976-6.59421,22.92164l-2.41697,3.06156,3.71539,1.1878,12.62192,4.03515c.95177.36484,1.94128.54977,2.94264.54977,2.38938,0,4.66114-1.05352,6.23279-2.8904,1.55163-1.81346,2.22847-4.21423,1.85702-6.58678l-11.13263-71.10505c-.63917-4.08262-3.98564-6.93415-8.13709-6.93463h0Z"/><path class="az" d="m190.86424,256.51206c-1.40458-18.72449.70394-33.80357-5.56799-34.90666-6.27185-1.10317-9.92311,13.92914-17.14454,30.91176-3.72385,8.75725-4.08093,16.78804-2.76222,22.94086l18.30669,5.85265c4.38143-5.54993,7.94731-14.41012,7.16806-24.79862Z"/><path class="an" d="m103.29293,259.52545s-18.17414-14.56198-21.39737-18.97978c-5.9363-8.13662-18.53897-33.73461-18.53897-33.73461-2.31069-4.89886-9.56561-3.85632-10.40343,1.49498l-11.13261,71.10505c-.65824,4.204,3.50394,7.52977,7.45908,5.9603l12.70183-4.06072c-4.38143-5.54993-7.94731-14.41012-7.16806-24.79862,1.4045-18.72449-.70394-33.80357,5.56791-34.90666,6.27193-1.10317,9.92311,13.92914,17.14462,30.91176,3.72385,8.75725,4.08101,16.78804,2.76222,22.94086l21.28148-6.80372c3.75057-1.4883,4.67318-6.37562,1.7233-9.12885Z"/><path class="ay" d="m58.41995,203.65623c1.95738,0,3.92302,1.0059,4.93662,3.15484,0,0,12.60267,25.59801,18.53897,33.73463,3.22325,4.4178,21.39737,18.97978,21.39737,18.97978,2.94988,2.75323,2.02728,7.64055-1.7233,9.12885l-21.28149,6.80372c1.3188-6.15282.96164-14.18361-2.7622-22.94086-6.97117-16.39387-10.61441-30.96892-16.50066-30.96892-.2114,0-.42654.01889-.64397.05714-6.27185,1.10309-4.16342,16.18219-5.56791,34.90668-.77925,10.3885,2.78664,19.24869,7.16807,24.79862l-12.70184,4.06072c-.68245.2708-1.37071.39585-2.03965.39585-3.20797,0-5.96409-2.87754-5.41943-6.35615l11.13261-71.10507c.47031-3.00391,2.962-4.64982,5.4668-4.64982m.00001-2.70291c-4.1518,0-7.49793,2.85164-8.13719,6.93463l-11.13261,71.10509c-.37146,2.37235.30542,4.77307,1.85707,6.58662,1.57173,1.83693,3.84347,2.89053,6.23273,2.89053,1.00132,0,1.99076-.18493,2.94255-.54973l12.62201-4.03519,3.71539-1.1878-2.41698-3.06156c-4.754-6.02188-7.21912-14.59072-6.59421-22.92164.40201-5.35963.52008-10.43007.62426-14.90363.18701-8.03194.399-17.13555,2.7165-17.54318.06148-.01081.12061-.01627.17578-.01627,2.55523,0,6.28155,9.67738,9.2757,17.45329,1.39305,3.61777,2.97197,7.71829,4.73758,11.87041,3.07658,7.23513,4.0023,14.80552,2.60669,21.3167l-.97775,4.56166,4.44373-1.42066,21.28149-6.80372.08797-.02813.08587-.03407c2.62739-1.04259,4.50902-3.32333,5.03339-6.10098.52438-2.77765-.39629-5.58746-2.46276-7.51616l-.07453-.06958-.07961-.06376c-7.19283-5.76349-18.69558-15.43674-20.90397-18.46358-5.73058-7.85464-18.17255-33.08152-18.29754-33.33542-1.34913-2.86112-4.17745-4.66386-7.36157-4.66386h0Z"/><path class="az" d="m77.52592,252.51716c-7.22152-16.98262-10.87269-32.01493-17.14462-30.91176-6.27185,1.10309-4.16342,16.18217-5.56791,34.90666-.77925,10.3885,2.78664,19.24869,7.16806,24.79862l18.30669-5.85265c1.31879-6.15282.96163-14.18361-2.76222-22.94086Z"/></g><path id="e" class="aq" d="m107.68848,425.33947l-52.9343-14.60494c-13.20248-6.00215-21.9591-19.24029-21.45473-33.73432.12015-3.45284.65298-6.96338,1.63943-10.4776v-.00003s.00002-.00003.00002-.00003c.76213-2.71508,1.2601-5.49069,1.49073-8.28835s.19394-5.61734-.11327-8.42058l-2.18475-19.93587-2.18475-19.93587c-1.09253-9.96937,1.25032-19.67869,6.2093-27.78825s12.53412-14.61935,21.90614-18.18965l23.54488-8.96948,23.54488-8.96948c5.05183-1.92451,10.36929-2.88676,15.68674-2.88676s10.63491.96225,15.68674,2.88676l23.54488,8.96948,23.54488,8.96948c9.37203,3.5703,16.94716,10.08009,21.90614,18.18965,4.95899,8.10956,7.30184,17.81888,6.2093,27.78825l-2.18475,19.93587-2.18475,19.93587c-.3072,2.80323-.3439,5.62293-.11327,8.42058s.7286,5.57327,1.49073,8.28835v.00003s.00002.00003.00002.00003c.98645,3.51422,1.51927,7.02476,1.63943,10.4776.50437,14.49403-8.25225,27.73217-21.45473,33.73432l-52.9343,14.60494c-9.62617,4.37627-20.67447,4.37627-30.30064,0Z"/><path id="f" class="ay" d="m122.8388,243.13824c5.31745,0,10.6349.96229,15.68674,2.88677l23.54491,8.96948,23.54482,8.96948c9.37206,3.5703,16.94717,10.08008,21.90617,18.18964,4.95898,8.10956,7.30184,17.81891,6.2093,27.78825l-2.18475,19.93588-2.18473,19.93588c-.30722,2.80322-.34393,5.62293-.11327,8.42058.23063,2.79765.72858,5.57327,1.49071,8.28835v.00004c.98647,3.51425,1.51927,7.02479,1.63944,10.47762.50438,14.49401-8.25222,27.73216-21.45468,33.73432l-52.93432,14.60491c-4.81309,2.18816-9.9817,3.28221-15.15033,3.28221s-10.33724-1.09406-15.15033-3.28221l-52.93428-14.60491c-13.2025-6.00216-21.95912-19.24031-21.45473-33.73432.12013-3.45284.65296-6.96337,1.63941-10.47762l.00003-.00004c.76213-2.71508,1.26009-5.4907,1.49072-8.28835.23066-2.79765.19396-5.61736-.11326-8.42058l-2.18475-19.93588-2.18474-19.93588c-1.09254-9.96934,1.2503-19.67869,6.20929-27.78825,4.95899-8.10956,12.53411-14.61935,21.90614-18.18964l23.5449-8.96948,23.54486-8.96948c5.05184-1.92449,10.36929-2.88677,15.68674-2.88677m0-2.70291c-5.71066,0-11.31219,1.03083-16.64894,3.06383l-23.5449,8.96948-23.54491,8.96948c-9.62151,3.66536-17.87847,10.52151-23.24984,19.3054-5.37137,8.78397-7.71182,19.25801-6.59017,29.49279l2.18474,19.93588,2.18475,19.93588c.28701,2.61898.32279,5.2783.10629,7.90409-.21647,2.62579-.68725,5.24333-1.39926,7.77991-1.02382,3.6473-1.60871,7.38665-1.73838,11.11417-.53726,15.43811,8.50545,29.68234,23.03737,36.28888l.19414.08826.2056.05671,52.7323,14.54919c5.0867,2.27959,10.49266,3.43531,16.0712,3.43531s10.98453-1.15572,16.07119-3.43531l52.73235-14.54919.2056-.05671.19413-.08826c14.53189-6.60658,23.5746-20.85082,23.03735-36.28892-.12973-3.72764-.7146-7.46695-1.7384-11.11409-.712-2.53662-1.18279-5.15416-1.39926-7.77995-.21649-2.62579-.18071-5.28511.1063-7.90405l2.18473-19.93592,2.18475-19.93588c1.12163-10.23474-1.2188-20.70882-6.59016-29.49275s-13.62833-15.64007-23.24987-19.30544l-23.54484-8.96948-23.54488-8.96948c-5.3368-2.033-10.93832-3.06383-16.64898-3.06383h0Z"/><g id="g"><path class="an" d="m57.52339,337.80533c1.59644,15.76372,42.14573-30.20319,50.12844-45.03945,5.01898-9.32801,7.56805-23.33487,6.91248-41.80247-.13156-3.70596-3.8752-6.27883-7.34288-4.96479-.02313.00877-.04626.01755-.06938.02636l-23.54491,8.96948-23.54482,8.96948c-9.37202,3.57034-16.94715,10.08008-21.90615,18.18964-2.22531,3.63904-3.91798,7.60197-5.0148,11.76452-.17046.64692-.21231,1.3196-.14107,1.98479.70003,6.5361,1.65558,13.50283,2.81144,17.13069,2.55064,8.0058,20.11521,9.00792,21.71165,24.77172Z"/><path class="an" d="m207.52145,282.1536c-4.959-8.10956-12.53413-14.6193-21.90615-18.18964l-23.54491-8.96948-22.90993-8.72763c-2.14201,8.03904-3.33113,16.83654-3.33113,26.06544,0,37.92871,19.94949,68.67608,44.55839,68.67608,12.70694,0,24.1624-8.21152,32.27963-21.36298l1.06341-9.70353c1.09253-9.96938-1.25033-19.67869-6.20933-27.78825Z"/></g><g id="h"><path class="ay" d="m122.8388,327.56782h8.54164c6.09825,0,9.90966,6.60155,6.86053,11.88279l-4.27082,7.39728-.32713.5666c-4.80188,8.3171-16.80657,8.3171-21.60845,0l-.32713-.5666-4.27082-7.39728c-3.04912-5.28124.76228-11.88279,6.86053-11.88279h8.54164Z"/><path class="ay" d="m98.35029,366.61751c-14.50506,0-26.30589-7.51022-26.30589-16.74209,0-.74634.60512-1.35146,1.35146-1.35146s1.35146.60512,1.35146,1.35146c0,7.74118,10.58795,14.03918,23.60298,14.03918,12.75767,0,23.13709-10.45465,23.13709-23.30471,0-.74634.60512-1.35146,1.35146-1.35146s1.35146.60512,1.35146,1.35146c0,14.34075-11.59164,26.00762-25.84001,26.00762Z"/><path class="ay" d="m147.32739,366.61751c-14.24836,0-25.84001-11.66687-25.84001-26.00762,0-.74634.60512-1.35146,1.35146-1.35146s1.35146.60512,1.35146,1.35146c0,12.85005,10.37942,23.30471,23.13709,23.30471,13.01437,0,23.60232-6.298,23.60232-14.03918,0-.74634.60512-1.35146,1.35146-1.35146s1.35146.60512,1.35146,1.35146c0,9.23187-11.80017,16.74209-26.30523,16.74209Z"/></g><path id="i" class="at" d="m126.27173,353.1624c-2.24107.63201-4.62476.63201-6.86583,0-3.09068,5.24786-8.04093,9.24606-13.95966,11.04509l4.34736,7.33617,8.04613,13.57783c2.3554,3.97485,8.31141,3.97485,10.66681,0l8.04613-13.57783,4.25844-7.18629c-6.17072-1.71052-11.34938-5.77858-14.53938-11.19497Z"/><path class="ay" d="m123.1734,389.45369c-2.71611,0-5.14451-1.36201-6.49663-3.64326l-13.27106-22.39538,1.64709-.50086c5.53055-1.68074,10.21445-5.38735,13.18858-10.43749l.52923-.89811,1.00237.28309c2.00607.56619,4.12564.56619,6.13171,0l1.00237-.28309.52923.89811c3.07311,5.21776,7.95102,8.97518,13.73563,10.57805l1.70186.47182-13.20442,22.28385c-1.35212,2.28124-3.78051,3.64326-6.49597,3.64326Zm-15.71662-24.50439l11.54545,19.48328c.8605,1.45176,2.41982,2.3182,4.17117,2.3182,1.75069,0,3.31001-.86644,4.17051-2.3182l11.43525-19.29719c-5.41704-1.90313-10.01318-5.5444-13.14437-10.42891-1.84505.37614-3.74686.37614-5.59192,0-3.02164,4.71228-7.42179,8.28889-12.5861,10.24283Z"/><g id="j"><circle class="ay" cx="91.05888" cy="348.9173" r="2.04787"/><circle class="ay" cx="100.51908" cy="351.62021" r="2.04787"/><circle class="ay" cx="96.46471" cy="343.51147" r="2.04787"/><circle class="ay" cx="154.61871" cy="348.9173" r="2.04787"/><circle class="ay" cx="145.15851" cy="351.62021" r="2.04787"/><circle class="ay" cx="149.21288" cy="343.51147" r="2.04787"/></g><g id="k"><path id="l" class="au" d="m122.85001,432.05968c-31.3574,0-62.71136-4.92476-78.93878-14.77565-11.94377-7.24926-13.99047-15.789-13.60443-21.67609l.50805-21.2851,10.08201,14.55286s4.34057,5.52544,4.90664,7.74698c.71679,2.81303,3.24824,5.61549,6.16628,7.38713,27.80653,16.87818,113.90014,16.88507,141.72252.01103,2.92425-1.77302,5.46246-4.58163,6.18214-7.40092.56722-2.22202,4.91009-7.74836,4.91009-7.74836l10.08201-14.54596.50461,21.2851c.38466,5.89123-1.66824,14.43786-13.6258,21.6885-16.22467,9.83986-47.56139,14.76048-78.89536,14.76048Z"/><path id="m" class="ay" d="m33.31898,382.68375l5.35607,7.73124.04621.06665.04986.06347c2.12511,2.70679,4.18731,5.85863,4.41318,6.74491.85838,3.36895,3.61832,6.7447,7.38301,9.03036,13.4675,8.1746,40.48823,13.05495,72.28047,13.05495,31.77169,0,58.7796-4.87606,72.24587-13.04324,3.77167-2.28677,6.53793-5.66756,7.39973-9.0436.22638-.88685,2.29021-4.03973,4.41661-6.74714l.05007-.06372.04594-.06632,5.35506-7.72608.30796,12.98954.00132.05609.00365.05597c.33595,5.14505-1.53049,12.65266-12.33025,19.20126-14.61378,8.86291-44.30765,14.36867-77.49372,14.36867-33.2114,0-62.92152-5.51133-77.53635-14.38331-10.78485-6.54587-12.64684-14.04788-12.30974-19.18859l.00367-.05617.00135-.05621.31003-12.98871m-2.50412-8.3609l-.50806,21.28511c-.38605,5.88709,1.66065,14.42682,13.60444,21.67609,16.22741,9.85089,47.58137,14.77562,78.93878,14.77562,31.33395,0,62.67068-4.9206,78.89535-14.76048,11.95753-7.25063,14.01045-15.79725,13.6258-21.68847l-.50463-21.28511-10.082,14.54597s-4.34284,5.5263-4.91008,7.74836c-.71967,2.81926-3.2579,5.62788-6.18215,7.40088-13.9078,8.43497-42.37446,12.65159-70.84452,12.65159-28.48396,0-56.97133-4.22145-70.87799-12.6626-2.91806-1.77164-5.44951-4.57412-6.16628-7.38715-.56608-2.22152-4.90664-7.74695-4.90664-7.74695l-10.08201-14.55286h0Z"/><g id="n"><path class="ay" d="m110.54243,431.68604c-.74634,0-1.35146-.60446-1.35146-1.35146s.60512-1.35146,1.35146-1.35146c6.03536,0,10.94495-4.8502,10.94495-10.81165,0-.747.60512-1.35146,1.35146-1.35146s1.35146.60446,1.35146,1.35146c0,7.45149-6.12247,13.51456-13.64786,13.51456Z"/><path class="ay" d="m135.13525,431.68604c-7.5254,0-13.64786-6.06308-13.64786-13.51456,0-.747.60512-1.35146,1.35146-1.35146s1.35146.60446,1.35146,1.35146c0,5.96145,4.90959,10.81165,10.94495,10.81165.74634,0,1.35146.60446,1.35146,1.35146s-.60512,1.35146-1.35146,1.35146Z"/></g><g id="o"><path class="ay" d="m137.54257,423.4159c.00015,2.45264,3.78077,2.45274,3.78062-.00017-.00015-2.45247-3.78077-2.45256-3.78062.00017Z"/><path class="ay" d="m151.17614,422.53627c.00017,2.75173,3.78079,2.7518,3.78062-.00017-.00015-2.45247-3.78077-2.45256-3.78062.00017Z"/><path class="ay" d="m164.19238,420.82331c.00015,2.45264,3.78077,2.45274,3.78062-.00017-.00015-2.45247-3.78077-2.45256-3.78062.00017Z"/><path class="ay" d="m177.59904,417.99924c.00015,2.45264,3.78077,2.45274,3.78062-.00017-.00015-2.45247-3.78077-2.45256-3.78062.00017Z"/><path class="ay" d="m189.90891,413.78629c.00015,2.45264,3.78077,2.45274,3.78062-.00017-.00015-2.45247-3.78077-2.45256-3.78062.00017Z"/><path class="ay" d="m199.6348,407.90667c.00015,2.45264,3.78077,2.45274,3.78062-.00017-.00015-2.45247-3.78077-2.45256-3.78062.00017Z"/><path class="ay" d="m205.28949,400.08261c.00015,2.45264,3.78077,2.45274,3.78062-.00017-.00015-2.45247-3.78077-2.45256-3.78062.00017Z"/><path class="ay" d="m108.13503,423.4159c-.00015,2.45264-3.78077,2.45274-3.78062-.00017.00015-2.45247,3.78077-2.45256,3.78062.00017Z"/><path class="ay" d="m94.50145,422.53627c-.00017,2.75173-3.78079,2.7518-3.78062-.00017.00015-2.45247,3.78077-2.45256,3.78062.00017Z"/><path class="ay" d="m81.48521,420.82331c-.00015,2.45264-3.78077,2.45274-3.78062-.00017.00015-2.45247,3.78077-2.45256,3.78062.00017Z"/><path class="ay" d="m68.07855,417.99924c-.00015,2.45264-3.78077,2.45274-3.78062-.00017.00015-2.45247,3.78077-2.45256,3.78062.00017Z"/><path class="ay" d="m55.76868,413.78629c-.00015,2.45264-3.78077,2.45274-3.78062-.00017.00015-2.45247,3.78077-2.45256,3.78062.00017Z"/><path class="ay" d="m46.0428,407.90667c-.00015,2.45264-3.78077,2.45274-3.78062-.00017.00015-2.45247,3.78077-2.45256,3.78062.00017Z"/><path class="ay" d="m40.3881,400.08261c-.00015,2.45264-3.78077,2.45274-3.78062-.00017.00015-2.45247,3.78077-2.45256,3.78062.00017Z"/></g></g><g id="p"><g id="q"><rect class="ao" x="36.271" y="271.84336" width="6.83922" height="21.06922" rx="1.52896" ry="1.52896" transform="translate(-224.70119 175.56207) rotate(-60)"/><path class="av" d="m46.33835,291.20122c-.59192,0-1.17527-.15441-1.69988-.45796l-14.66739-8.46706c-1.63125-.94364-2.19216-3.03748-1.25115-4.66939l1.35344-2.34393c.45532-.78857,1.19308-1.35344,2.07602-1.58968.88161-.23558,1.80348-.11482,2.59271.33852l14.66805,8.46838c1.63191.94298,2.19348,3.03682,1.25115,4.66873l-1.35344,2.34393c-.45532.78857-1.19242,1.35344-2.07602,1.59034-.29563.07919-.59588.11812-.89349.11812Zm-13.29812-14.94125c-.24944,0-.49492.12802-.62558.35436l-1.35344,2.34393c-.19401.33522-.07391.78329.26198.9773l14.66739,8.46706c.22106.12736.43289.097.54177.06995.10756-.02904.30685-.1102.43421-.33127l1.35344-2.34393c.19401-.33522.07391-.78263-.26132-.97598l-14.66805-8.46838c-.10888-.06335-.2303-.09304-.3504-.09304Z"/><rect class="ao" x="202.56737" y="271.84336" width="6.83922" height="21.06922" rx="1.52896" ry="1.52896" transform="translate(64.43397 601.95691) rotate(-120)"/><path class="av" d="m199.33933,291.20188c-.29761,0-.59786-.03959-.89349-.11878-.88359-.2369-1.62069-.80177-2.07602-1.59034l-1.35344-2.34393c-.94232-1.63191-.38076-3.72574,1.25115-4.66873l14.66739-8.46838c1.63455-.941,3.72574-.38076,4.66939,1.25115l1.35344,2.34393c.941,1.63191.3801,3.72574-1.25049,4.66873l-14.66871,8.46838c-.52395.30289-1.1073.45796-1.69922.45796Zm13.29746-14.94191c-.1201,0-.24152.0297-.3504.09304l-14.66739,8.46838c-.33522.19335-.45532.64075-.26132.97598l1.35344,2.34393c.12736.22106.32665.30223.43421.33127.10756.02706.32071.05741.54111-.06929l14.66871-8.46838c.33522-.19335.45532-.64141.26132-.97664l-1.35344-2.34393c-.13066-.22634-.3768-.35436-.62624-.35436Z"/></g><path id="r" class="ap" d="m198.02288,294.05428c3.29141,0,3.90175-2.31636,3.58484-5.66975-.27968-2.95998-2.96534-5.1163-5.9385-5.1163h-36.75031c-.09814,0-.18972.02411-.28666.02912-5.51013-.12839-13.77437.09856-17.83059,2.30001-5.51824,2.99488-11.68792,3.42086-17.96286,3.47683-6.27494-.05598-12.44462-.48196-17.96286-3.47683-4.05622-2.20144-12.32047-2.42839-17.83059-2.30001-.09694-.00501-.18852-.02912-.28666-.02912h-36.75031c-2.97316,0-5.65882,2.15632-5.9385,5.1163-.31691,3.35338.29343,5.66975,3.58484,5.66975h.9993c-4.19462,4.12052-4.60988,9.64912-4.60988,15.03947,0,14.09974,16.81303,25.52983,37.55299,25.52983s37.55299-18.36077,37.55299-32.46051l-.00007-.03412c-.00374-1.82369,1.48535-3.31588,3.30904-3.31588h.75945c1.82376,0,3.31278,1.49219,3.30904,3.31588l-.00007.03412c0,14.09974,16.81303,32.46051,37.55299,32.46051s37.55299-11.43009,37.55299-25.52983c0-5.39034-.41526-10.91895-4.60988-15.03947h.9993Z"/><path id="s" class="av" d="m159.15571,285.9569h.00676-.00676m36.51351.01423c1.67973,0,3.10621,1.17176,3.24757,2.66769.20009,2.1173-.15182,2.60244-.14695,2.60244h.00002c-.00773.00462-.19343.11012-.74698.11012h-.99928c-1.0976,0-2.08624.66377-2.50177,1.67971-.41548,1.0159-.17539,2.18222.60762,2.9514,3.50759,3.44566,3.8011,8.36643,3.8011,13.11125,0,12.5868-15.63366,22.8269-34.85007,22.8269-8.887,0-17.66188-3.62758-24.70819-10.21445-6.25573-5.84787-10.14187-13.33635-10.14182-19.5717.0033-1.60506-.62135-3.11679-1.75892-4.25671-1.13755-1.13988-2.64797-1.76764-4.25301-1.76764h-.75947c-1.60501,0-3.11543.62776-4.25298,1.76764-1.13757,1.13992-1.76225,2.65161-1.7589,4.28529,0,6.20677-3.88614,13.69525-10.14189,19.54312-7.04634,6.58687-15.8212,10.21445-24.70819,10.21445-19.21638,0-34.85006-10.2401-34.85006-22.8269,0-4.74482.29351-9.66563,3.80111-13.11125.78301-.76914,1.02311-1.9355.60762-2.9514-.41552-1.0159-1.40416-1.67971-2.50176-1.67971h-.9993c-.53048,0-.72313-.09688-.73162-.09688-.00017,0-.00027.00004-.00029.00012-.0188-.02553-.35965-.52461-.16199-2.61585.14134-1.49589,1.56785-2.66765,3.24758-2.66765h36.61865c.09215.01159.18484.02066.27905.02553.04638.00239.09279.00359.13922.00359.02099,0,.04199-.00025.06297-.00074.73827-.01716,1.52684-.02784,2.34896-.02784,6.73366,0,11.75156.71078,14.12942,2.00128,6.27919,3.40784,13.21752,3.75041,19.27626,3.80406,6.01052-.05366,12.94885-.39622,19.22806-3.80406,2.37794-1.29058,7.39585-2.00133,14.12938-2.00128.82173,0,1.61104.01068,2.34896.02784.02099.00049.04196.00074.06296.00074.04644,0,.09288-.0012.13924-.00359.09175-.00474.18203-.01345.27821-.02553h36.61951m3.10089,5.26997h.00676-.00676m-3.10089-7.97288h-36.75031c-.09816,0-.18972.02413-.28664.02912-.75772-.01765-1.56817-.02858-2.41192-.02858-5.29218-.00004-11.92027.42988-15.4187,2.32859-5.51823,2.99487-11.6879,3.42087-17.96285,3.47684-6.27494-.05597-12.44461-.48197-17.96286-3.47684-3.49821-1.89859-10.12671-2.32859-15.41869-2.32859-.84417,0-1.65386.01093-2.41191.02858-.09693-.00499-.18853-.02912-.28667-.02912h-36.75029c-2.97318,0-5.65882,2.15632-5.93852,5.1163-.31691,3.3534.29343,5.66978,3.58485,5.66978h.9993c-4.19463,4.12052-4.60987,9.64909-4.60987,15.03945,0,14.09972,16.81304,25.52982,37.55298,25.52982s37.553-18.36076,37.553-32.46048l-.00007-.03415c-.00373-1.82369,1.48535-3.31587,3.30903-3.31587h.75947c1.82376,0,3.31277,1.49218,3.30901,3.31587l-.00005.03415c0,14.09972,16.813,32.46048,37.55298,32.46048s37.55299-11.43009,37.55299-25.52982c0-5.39036-.41526-10.91893-4.60985-15.03945h.99928c3.29143,0,3.90175-2.31638,3.58482-5.66978-.27967-2.95998-2.9653-5.1163-5.93848-5.1163h0Z"/><g id="t"><path id="u" class="ar" d="m55.95975,296.87958c-5.27448,4.35129-7.02189,11.42182-3.97015,17.314,1.69102,3.26496,4.37918,6.07771,7.91709,7.9793,5.49977,2.95607,12.64312,4.74154,20.45069,4.74154,9.38452,0,17.8094-4.14369,23.57395-9.67383,6.24873-5.99464,11.47186-20.78879,2.51918-21.72651,0,0-25.5761-2.87515-40.18413-2.43131-3.81425.11589-7.46051,1.44884-10.30662,3.7968h0Z"/><path id="v" class="ar" d="m189.71785,296.87958c5.27448,4.35129,7.02189,11.42182,3.97015,17.314-1.69102,3.26496-4.37918,6.07771-7.91709,7.9793-5.49977,2.95607-12.64312,4.74154-20.45069,4.74154-9.38452,0-17.8094-4.14369-23.57395-9.67383-6.24873-5.99464-11.47186-20.78879-2.51918-21.72651,0,0,25.5761-2.87515,40.18413-2.43131,3.81425.11589,7.46051,1.44884,10.30662,3.7968h0Z"/></g></g><g id="w"><path class="ax" d="m243.60864,231.80159c4.8568-.80903,11.2155-1.50323,19.30973-1.50323,9.94324,0,17.22843,2.31292,21.85295,6.47551,4.27873,3.70001,6.82195,9.36517,6.82195,16.30326,0,7.05291-2.0813,12.6026-6.01161,16.64971-5.32004,5.66582-13.99101,8.55614-23.81942,8.55614-3.00646,0-5.78064-.11548-8.09422-.69355v31.21878h-10.05938v-77.00662Zm10.05938,37.57814c2.19744.57806,4.97294.80969,8.32518.80969,12.14067,0,19.54069-5.89678,19.54069-16.65037,0-10.29034-7.28388-15.26196-18.38456-15.26196-4.39355,0-7.74712.34644-9.48131.80903v30.29361Z"/><path class="ax" d="m345.47863,272.27072h-30.29427v28.09683h33.76266v8.44066h-43.82203v-77.93113h42.08784v8.44066h-32.02846v24.62779h30.29427v8.32518Z"/><path class="ax" d="m378.66322,239.43323h-23.70328v-8.55614h57.6969v8.55614h-23.8181v69.37498h-10.17552v-69.37498Z"/><path class="ax" d="m243.60864,332.23566h10.05938v69.49179h33.30073v8.44h-43.36011v-77.93179Z"/><path class="ax" d="m328.82694,410.16745l-.80903-7.05291h-.3471c-3.1226,4.39355-9.13421,8.32518-17.11229,8.32518-11.33165,0-17.11361-7.97808-17.11361-16.0723,0-13.52776,12.02585-20.92778,33.64783-20.81296v-1.15613c0-4.62452-1.27227-12.9497-12.71874-12.9497-5.2039,0-10.63744,1.61805-14.56907,4.16259l-2.31226-6.70581c4.62452-3.00646,11.33033-4.97294,18.38456-4.97294,17.11229,0,21.27488,11.67875,21.27488,22.89425v20.92778c0,4.8568.23096,9.59745.92517,13.41294h-9.25035Zm-1.50323-28.56008c-11.10068-.23096-23.70328,1.73551-23.70328,12.60392,0,6.59099,4.39355,9.71227,9.59745,9.71227,7.28388,0,11.90839-4.62452,13.52776-9.36517.3471-1.04131.57806-2.19744.57806-3.23742v-9.71359Z"/><path class="ax" d="m353.1096,410.16745c.23096-3.81549.46192-9.48131.46192-14.45293v-67.64145h10.0607v35.15107h.23096c3.58453-6.24389,10.05938-10.29166,19.07744-10.29166,13.87486,0,23.70328,11.56261,23.58846,28.56008,0,20.00261-12.60392,29.94717-25.09169,29.94717-8.0929,0-14.56775-3.1226-18.73034-10.52262h-.3471l-.46324,9.25035h-8.78711Zm10.52262-22.43101c0,1.27095.23096,2.54322.46192,3.69935,1.96515,7.05291,7.86194,11.90971,15.26196,11.90971,10.63744,0,16.99747-8.67229,16.99747-21.50584,0-11.2155-5.78196-20.81296-16.65037-20.81296-6.93677,0-13.41162,4.74066-15.49292,12.48777-.23228,1.15613-.57806,2.54322-.57806,4.16259v10.05938Z"/></g><g id="x"><g id="y"><path id="z" class="am" d="m211.47103,408.64348l-4.73016-8.19288c-.19156-.3318-.29243-.70817-.29243-1.09128v-46.11484h-12.6217v46.11484c0,.38311-.10088.75948-.29243,1.09128l-4.73016,8.19288-9.44326,16.35622c-.84009,1.45505.21001,3.27387,1.89016,3.27387h37.77309c1.68015,0,2.73025-1.81882,1.89016-3.27387l-9.44326-16.35622Z"/><path id="aa" class="av" d="m206.44845,353.24449v46.11482c0,.38311.10086.75949.29241,1.09129l4.73016,8.19287,9.44326,16.35622c.8401,1.45506-.21001,3.27388-1.89015,3.27388h-37.77308c-1.68016,0-2.73026-1.81882-1.89017-3.27388l9.44326-16.35622,4.73016-8.19287c.19155-.3318.29243-.70819.29243-1.09129v-46.11482h12.62171m2.70291-2.70291h-18.02754v48.67825l-4.66048,8.0722-9.44324,16.35622c-.88312,1.52954-.88312,3.35592,0,4.8855.88308,1.52959,2.46475,2.44275,4.23095,2.44275h37.77308c1.7662,0,3.34787-.91317,4.23097-2.44275.88308-1.52959.88308-3.35596-.00004-4.8855l-9.44324-16.35622-4.66046-8.07211v-48.67833h0Z"/><path id="ab" class="as" d="m220.91433,424.99966l-9.44326-16.35618-4.73016-8.19288c-.19156-.33183-.29247-.70817-.29247-1.09128v-8.91008c-.5453.39502-1.15289,1.70572-2.86581,2.39315-2.96959,1.19178-6.26212-.69365-6.81639-.9612-.66695-.32191-1.67327-.3701-2.93947-.18663v7.66477c0,.38311-.10091.75945-.29247,1.09128l-4.73016,8.19288-9.44326,16.35618c-.84009,1.45508.21004,3.27391,1.89016,3.27391h37.77312c1.68012,0,2.73025-1.81882,1.89016-3.27391Z"/><path class="av" d="m213.48079,352.69249h-26.68599c-.74634,0-1.35146-.60512-1.35146-1.35146s.60512-1.35146,1.35146-1.35146h26.68599c.74634,0,1.35146.60512,1.35146,1.35146s-.60512,1.35146-1.35146,1.35146Z"/><path class="av" d="m198.60157,371.11202h-4.77497c-.74634,0-1.35146-.60512-1.35146-1.35146s.60512-1.35146,1.35146-1.35146h4.77497c.74634,0,1.35146.60512,1.35146,1.35146s-.60512,1.35146-1.35146,1.35146Z"/><path class="av" d="m198.60157,377.39419h-4.77497c-.74634,0-1.35146-.60512-1.35146-1.35146s.60512-1.35146,1.35146-1.35146h4.77497c.74634,0,1.35146.60512,1.35146,1.35146s-.60512,1.35146-1.35146,1.35146Z"/><path class="av" d="m198.60157,383.67569h-4.77497c-.74634,0-1.35146-.60512-1.35146-1.35146s.60512-1.35146,1.35146-1.35146h4.77497c.74634,0,1.35146.60512,1.35146,1.35146s-.60512,1.35146-1.35146,1.35146Z"/></g><g id="ac"><circle class="aw" cx="195.87817" cy="343.71486" r="1.46898"/></g><g id="ad"><circle class="aw" cx="202.43726" cy="346.53611" r="1.46898"/></g><g id="ae"><circle class="aw" cx="200.42244" cy="339.25058" r="1.46898"/></g></g></g></g></svg>