<?xml version="1.0" encoding="UTF-8"?><svg id="a" xmlns="http://www.w3.org/2000/svg" width="300" height="190" viewBox="0 0 300 190"><defs><style>.af,.ag{fill:#fff;}.ah{fill:#be9a73;}.ag,.ai,.aj,.ak{fill-rule:evenodd;}.al{fill:#846144;}.am{fill:#3c2a1e;}.ai,.an{fill:#272525;}.ao,.ap{stroke:#3c2a1e;}.ao,.ap,.aq{stroke-linecap:round;}.ao,.ap,.aq,.ar{stroke-miterlimit:10;stroke-width:2px;}.ao,.aq{fill:none;}.ap{fill:#cb9899;}.aj,.as{fill:#488752;}.aq,.ar{stroke:#272525;}.ar,.ak{fill:#424244;}.at{fill:#5c3e22;}.au{fill:#a27d58;}</style></defs><g id="b"><g id="c"><path class="au" d="m131.91861,70.02675c-.63867,0-1.27051-.12256-1.87793-.36328l-10.70898-3.42139.89355-1.13281c3.66895-4.64697,5.57324-11.24707,5.09277-17.65479-.2959-3.94092-.38281-7.68018-.45996-10.979-.17578-7.54053-.31445-13.49609-2.83594-13.93994-.10254-.01807-.2041-.02734-.30371-.02734-2.57715,0-4.99609,6.28271-7.79785,13.55713-1.02734,2.66895-2.19238,5.69385-3.49219,8.74951-2.35547,5.5415-3.06152,11.35693-1.98633,16.37402l.3623,1.6875-17.3916-5.55957c-1.6875-.66748-2.85059-2.07715-3.1748-3.79443-.32324-1.71631.24609-3.45264,1.52246-4.64453.19043-.15576,13.42773-10.77734,15.70703-13.90186,4.29102-5.88184,13.53516-24.625,13.62793-24.81396.85156-1.80566,2.55566-2.89258,4.55078-2.89258,2.56836,0,4.6377,1.76221,5.0332,4.28564l8.2373,52.61377c.23242,1.48779-.17383,2.93311-1.14648,4.06934s-2.37598,1.78857-3.85156,1.78857h0Z"/><path class="am" d="m123.64612,8.26924c1.85324.00006,3.69717,1.21814,4.04514,3.44061l8.23749,52.61365c.40305,2.57416-1.63614,4.70319-4.01004,4.70319-.49484,0-1.00446-.09259-1.50925-.29291l-9.39862-3.0047c3.242-4.10663,5.88055-10.66266,5.30396-18.34955-1.03931-13.85504.52087-25.0127-4.12-25.82892-.16116-.02835-.31979-.0423-.47647-.0423-4.35498.00034-7.05164,10.78546-12.2095,22.91522-2.75543,6.47986-3.01965,12.42218-2.04388,16.97491l-15.74707-5.03436c-2.77527-1.10126-3.45795-4.71759-1.27515-6.75482,0,0,13.44781-10.77502,15.83276-14.04395,4.39258-6.02063,13.71777-24.96167,13.71777-24.96167.75015-1.5903,2.20432-2.33444,3.65286-2.33441m.00009-1.99997c-.00021,0,.00015,0-.00003,0-2.35608-.00009-4.44891,1.3338-5.46179,3.48114-.07794.15768-9.28424,18.82413-13.5246,24.63611-1.63403,2.23969-10.14539,9.39734-15.46765,13.66199l-.05887.04715-.05515.05148c-1.52911,1.42712-2.21039,3.50623-1.82239,5.56155.388,2.0553,1.7803,3.74292,3.72446,4.51437l.06354.02521.06509.02081,15.74707,5.03436,3.28806,1.05121-.72342-3.37534c-1.03265-4.81802-.34766-10.41971,1.9288-15.77316,1.30615-3.07162,2.47427-6.10519,3.50491-8.78165,2.21585-5.75446,4.97357-12.91605,6.86423-12.9162.04123,0,.08377.00394.12985.01205,1.71487.30161,1.87173,7.03769,2.01013,12.9808.07709,3.31021.16443,7.0621.46191,11.02795.4624,6.1644-1.36163,12.50485-4.8793,16.96069l-1.78842,2.26538,2.74918.87891,9.33948,2.98578c.70425.26996,1.43643.4068,2.17737.4068,1.76801,0,3.44897-.77954,4.61194-2.13873,1.1481-1.34186,1.64893-3.11829,1.37405-4.87384l-8.23749-52.61362c-.47296-3.02094-2.94913-5.13089-6.02097-5.13123h0Z"/><path class="al" d="m126.31479,47.37954c-1.03931-13.85504.52087-25.0127-4.12-25.82892-4.64081-.81628-7.34253,10.30676-12.68597,22.87292-2.75543,6.47986-3.01965,12.42218-2.04388,16.97491l13.5459,4.33063c3.242-4.10663,5.88055-10.66266,5.30396-18.34955Z"/><path class="au" d="m20.04117,70.02675c-1.4751,0-2.87939-.65234-3.85205-1.78906-.97217-1.13574-1.37891-2.58057-1.146-4.06885L23.28092,11.55507c.39453-2.52344,2.46436-4.28564,5.03271-4.28564,1.99463,0,3.69824,1.08691,4.55713,2.90771.08594.17383,9.33008,18.91699,13.62109,24.79883,2.28027,3.125,15.51709,13.74609,15.65088,13.85303,1.33398,1.24121,1.90283,2.97754,1.57861,4.69434s-1.48682,3.12598-3.11084,3.77051l-17.45557,5.58252.3623-1.6875c1.0752-5.01709.37012-10.83203-1.98682-16.37402-1.29932-3.05615-2.46436-6.08105-3.4917-8.75049-2.80078-7.27393-5.21973-13.55615-7.79736-13.55615-.09961,0-.20068.00928-.30322.02734-2.52246.44385-2.66114,6.40088-2.83643,13.94287-.07666,3.29785-.16406,7.03613-.45947,10.97607-.48047,6.4082,1.42285,13.00781,5.09131,17.65479l.89453,1.13281-10.77295,3.44434c-.54346.21777-1.17529.34033-1.81396.34033Z"/><path class="am" d="m28.31366,8.26924c1.44833,0,2.9028.74432,3.6528,2.33441,0,0,9.32526,18.94104,13.71777,24.96167,2.38501,3.26892,15.83282,14.04395,15.83282,14.04395,2.18274,2.03723,1.50006,5.65356-1.27515,6.75482l-15.74707,5.03436c.97583-4.55273.71155-10.49506-2.04388-16.97491-5.15826-12.13052-7.85406-22.91522-12.20953-22.91522-.15643,0-.31561.01401-.4765.0423-4.64081.81622-3.08069,11.97388-4.11993,25.82892-.5766,7.68689,2.06195,14.24292,5.30396,18.34955l-9.39862,3.0047c-.50497.20038-1.01424.29291-1.50923.29291-2.3737,0-4.41307-2.12921-4.01006-4.70319L24.26853,11.70985c.34799-2.22272,2.19171-3.44061,4.04514-3.44061m0-1.99997c-3.0721,0-5.54805,2.11002-6.02106,5.13123l-8.23749,52.61365c-.27487,1.7554.22598,3.5318,1.37411,4.87372,1.16299,1.35922,2.84396,2.13882,4.61188,2.13882.74091,0,1.47304-.13684,2.17731-.40677l9.33957-2.98581,2.74918-.87891-1.78842-2.26538c-3.5177-4.45584-5.34175-10.7963-4.87935-16.96069.29747-3.96582.38481-7.71762.4619-11.0278.1384-5.94321.29526-12.67935,2.01007-12.98096.0455-.008.08923-.01205.13007-.01205,1.89072,0,4.64801,7.16071,6.86349,12.91446,1.03079,2.67694,2.19907,5.71106,3.50552,8.78339,2.27649,5.35358,2.96149,10.95523,1.9288,15.77313l-.72348,3.37537,3.28812-1.05121,15.74707-5.03436.06509-.02081.06354-.02521c1.94412-.77145,3.33643-2.45908,3.72443-4.51437s-.29324-4.1344-1.8223-5.56152l-.05518-.05148-.0589-.04718c-5.32227-4.26465-13.83365-11.4223-15.46771-13.66199-4.24033-5.81198-13.44666-24.47842-13.53915-24.66629-.99826-2.11707-3.09106-3.45096-5.44711-3.45096h0Z"/><path class="al" d="m42.45096,44.42355c-5.34351-12.56616-8.04517-23.68921-12.68604-22.87292-4.64081.81622-3.08069,11.97388-4.11993,25.82892-.5766,7.68689,2.06195,14.24292,5.30396,18.34955l13.5459-4.33063c.97583-4.55273.71155-10.49506-2.04388-16.97491Z"/></g><g id="d"><path class="ah" d="m75.97965,175.73036c-4.01074,0-7.89697-.83594-11.55127-2.48535l-39.16943-10.80664-.07178-.0332c-10.38281-4.7207-16.84424-14.88867-16.46094-25.90625.09326-2.67773.51367-5.36523,1.25-7.98828.54395-1.93652.90332-3.93652,1.06934-5.94434.16504-2.00879.1377-4.04102-.08154-6.04004l-3.23291-29.50293c-.80615-7.35449.87549-14.88037,4.73535-21.19189,3.85986-6.31201,9.79297-11.23877,16.70654-13.87256l34.84375-13.27393c3.83447-1.46045,7.85938-2.20117,11.96289-2.20117,4.104,0,8.12939.74072,11.96338,2.20117l34.84473,13.27393c6.91211,2.63379,12.8457,7.56055,16.70605,13.87207,3.8584,6.31152,5.54004,13.83789,4.73535,21.19238l-3.2334,29.50293c-.21973,2.00195-.24707,4.03418-.08105,6.04004.16504,2.00879.52539,4.00879,1.06934,5.94434.73633,2.62402,1.15625,5.31152,1.24902,7.98828.38379,11.01758-6.07715,21.18555-16.45996,25.90625l-.07227.0332-39.16895,10.80664c-3.65527,1.64941-7.54102,2.48535-11.55225,2.48535Z"/><path class="am" d="m75.97989,37.48369c3.9346,0,7.8692.71201,11.60727,2.13605l17.42184,6.6369,17.42188,6.6369c6.93475,2.64182,12.53992,7.45868,16.20929,13.45929,3.66934,6.00061,5.40292,13.18494,4.59451,20.56171l-1.61658,14.7514-1.61661,14.7514c-.22729,2.07422-.25446,4.16061-.0838,6.23074.17065,2.0701.53912,4.12387,1.10306,6.13287v.00006c.72992,2.60031,1.12418,5.19791,1.2131,7.75281.3732,10.72476-6.1062,20.52023-15.87527,24.96146l-39.16833,10.80682c-3.5614,1.61911-7.38586,2.42865-11.21036,2.42865s-7.64899-.80954-11.21039-2.42865l-39.16833-10.80682c-9.76906-4.44122-16.24844-14.23669-15.87526-24.96146.08891-2.5549.48318-5.1525,1.21309-7.75281v-.00003l.00003-.00003c.56393-2.009.93236-4.06277,1.10304-6.13287.17064-2.07013.14349-4.15652-.08382-6.23074l-1.61661-14.7514-1.61658-14.7514c-.80841-7.37677.92517-14.5611,4.59451-20.56171,3.6694-6.00061,9.27455-10.81747,16.20932-13.45929l17.42184-6.6369,17.42184-6.6369c3.73807-1.42404,7.67267-2.13605,11.6073-2.13605m0-2c-4.22571,0-8.37051.76276-12.31931,2.26706l-17.42184,6.6369-17.42181,6.6369c-7.11938,2.71216-13.22908,7.78528-17.2036,14.28488-3.9745,6.49963-5.70628,14.24985-4.87636,21.82297l1.61659,14.7514,1.61661,14.7514c.21236,1.9379.23883,3.90564.07866,5.84857-.1602,1.94299-.50854,3.87982-1.03537,5.75665-.75757,2.69876-1.19035,5.46567-1.28633,8.22382-.39752,11.42337,6.29356,21.96329,17.04633,26.85172l.14365.06531.15213.04196,39.01888,10.76559c3.76389,1.68674,7.76401,2.54193,11.89178,2.54193s8.12787-.85519,11.89172-2.54193l39.01892-10.76559.15213-.04196.14365-.06531c10.75278-4.88843,17.44385-15.42834,17.04633-26.85172-.09598-2.75815-.52878-5.52502-1.28629-8.22375-.52689-1.87704-.87527-3.8139-1.03543-5.75674-.16016-1.9429-.1337-3.91064.07867-5.84854l1.61661-14.7514,1.61655-14.7514c.82996-7.57315-.90182-15.32336-4.87631-21.82294-3.97452-6.4996-10.08417-11.57275-17.20358-14.28491l-17.42184-6.6369-17.42184-6.6369c-3.94879-1.5043-8.0936-2.26706-12.31927-2.26706h0Z"/></g><g id="e"><path class="au" d="m27.65024,107.53188c1.18127,11.66425,31.18541-22.34862,37.09216-33.3266,3.71375-6.90219,5.59992-17.26646,5.11484-30.93142-.09734-2.7422-2.86743-4.64597-5.43331-3.67366-.01712.00649-.03423.01299-.05134.01951l-17.42188,6.6369-17.42181,6.6369c-6.93475,2.64185-12.53992,7.45868-16.20929,13.45929-1.6466,2.69268-2.89908,5.62502-3.71066,8.70507-.12613.47868-.1571.97643-.10438,1.46863.51798,4.83634,1.22504,9.99132,2.0803,12.67573,1.88733,5.92383,14.88409,6.66534,16.06537,18.32965Z"/><path class="au" d="m138.64017,66.35281c-3.66937-6.00061-9.27454-10.81744-16.20929-13.45929l-17.42188-6.6369-16.95203-6.45795c-1.58496,5.94843-2.46484,12.45807-2.46484,19.28693,0,28.06506,14.76147,50.81635,32.97064,50.81635,9.4024,0,17.87878-6.07605,23.88507-15.80737l.78687-7.18005c.80841-7.37677-.92517-14.5611-4.59454-20.56171Z"/></g><g id="f"><path class="am" d="m75.97988,99.95671h6.32032c4.51235,0,7.33257,4.88477,5.0764,8.79258l-3.16016,5.47356-.24205.41925c-3.55311,6.15417-12.4359,6.15417-15.98901,0l-.24205-.41925-3.16016-5.47356c-2.25618-3.90781.56404-8.79258,5.0764-8.79258h6.32032Z"/><path class="ao" d="m39.39519,116.46328c0,6.2944,8.25864,11.38776,18.46474,11.38776,10.01553,0,18.11996-8.15983,18.11996-18.24382"/><path class="ao" d="m112.56458,116.46328c0,6.2944-8.25864,11.38776-18.46474,11.38776-10.01553,0-18.11996-8.15983-18.11996-18.24382"/></g><path id="g" class="ap" d="m78.52005,118.89523c-1.65826.46765-3.42206.46765-5.08032,0-2.28693,3.88312-5.94983,6.84155-10.32935,8.17273l3.2168,5.42834,5.95367,10.04681c1.74286,2.94116,6.14996,2.94116,7.89282,0l5.95367-10.04681,3.151-5.31744c-4.56598-1.26569-8.39789-4.27582-10.7583-8.28363Z"/><g id="h"><circle class="am" cx="52.46458" cy="115.7541" r="1.51531"/><circle class="am" cx="59.46458" cy="117.7541" r="1.51531"/><circle class="am" cx="56.46458" cy="111.7541" r="1.51531"/><circle class="am" cx="99.49519" cy="115.7541" r="1.51531"/><circle class="am" cx="92.49519" cy="117.7541" r="1.51531"/><circle class="am" cx="95.49519" cy="111.7541" r="1.51531"/></g><g id="i"><g id="j"><path class="at" d="m75.98795,176.27431c-24.74707,0-46.92969-4.13379-57.89111-10.78711-8.40869-5.10449-9.85498-11.03906-9.5874-15.11914l.3042-12.72266,5.71143,8.24512c1.22754,1.56543,3.21729,4.3623,3.48389,5.41016.56396,2.21191,2.48438,4.53906,5.0127,6.07324,9.66895,5.86914,29.96387,9.51562,52.96436,9.51562,22.98633,0,43.27148-3.64355,52.94043-9.50684,2.53223-1.53613,4.45801-3.86719,5.02441-6.08301.26758-1.0498,2.25879-3.84668,3.4502-5.36328l5.74707-8.29004.30078,12.68164c.26855,4.125-1.18164,10.06543-9.60156,15.16895-10.95996,6.64746-33.12988,10.77734-57.85938,10.77734Z"/><path class="am" d="m9.74036,140.73933l3.96318,5.72067.03419.04932.0369.047c1.57245,2.00284,3.09839,4.33499,3.26549,4.99084.63521,2.4928,2.67738,4.99066,5.46301,6.68192,9.96516,6.04871,29.959,9.65988,53.48344,9.65988,23.50919,0,43.4935-3.60797,53.45773-9.65121,2.79083-1.69211,4.83771-4.19373,5.47537-6.69177.16754-.65619,1.69464-2.98914,3.26807-4.99249l.03702-.04715.03403-.04904,3.96243-5.71686.22784,9.61148.00098.0415.00272.04141c.24857,3.80704-1.13254,9.3623-9.12369,14.20786-10.81335,6.55804-32.78513,10.63199-57.34088,10.63199-24.57446,0-46.55823-4.07806-57.37245-10.64285-7.98016-4.84354-9.35793-10.39462-9.10851-14.19849l.00272-.04153.00101-.0416.2294-9.61087m-1.85291-6.18658l-.37593,15.74973c-.28563,4.35614,1.22879,10.67505,10.0665,16.03906,12.00737,7.28909,35.20747,10.93314,58.41017,10.93314,23.1853,0,46.37268-3.64096,58.37802-10.92191,8.8479-5.36505,10.36691-11.68906,10.08231-16.04825l-.37338-15.74973-7.46011,10.76315s-3.21347,4.08917-3.63318,5.73334c-.53253,2.08612-2.41068,4.16434-4.57443,5.47626-10.29099,6.24139-31.35464,9.36145-52.42087,9.36145-21.07648,0-42.15552-3.12366-52.44566-9.3696-2.15916-1.31091-4.0323-3.38458-4.56268-5.46606-.41885-1.6438-3.63063-5.7323-3.63063-5.7323l-7.46011-10.76828h0Z"/></g><g id="k"><path class="ao" d="m75.97988,166.99814c0,4.97461-4.06957,9-9.09877,9"/><path class="ao" d="m75.97988,166.99814c0,4.97461,4.06957,9,9.09877,9"/></g><g id="l"><path class="am" d="m86.85983,170.87878c.00011,1.81481,2.79755,1.81488,2.79744-.00013-.00011-1.81469-2.79755-1.81476-2.79744.00013Z"/><path class="am" d="m96.94789,170.2279c.00013,2.03612,2.79757,2.03617,2.79744-.00013-.00011-1.81469-2.79755-1.81476-2.79744.00013Z"/><path class="am" d="m106.57916,168.96041c.00011,1.81481,2.79755,1.81488,2.79744-.00013-.00011-1.81469-2.79755-1.81476-2.79744.00013Z"/><path class="am" d="m116.49931,166.87076c.00011,1.81481,2.79755,1.81488,2.79744-.00013-.00011-1.81469-2.79755-1.81476-2.79744.00013Z"/><path class="am" d="m125.60791,163.75342c.00011,1.81481,2.79755,1.81488,2.79744-.00013-.00011-1.81469-2.79755-1.81476-2.79744.00013Z"/><path class="am" d="m132.8045,159.40284c.00011,1.81481,2.79755,1.81488,2.79744-.00013-.00011-1.81469-2.79755-1.81476-2.79744.00013Z"/><path class="am" d="m136.98865,153.61349c.00011,1.81481,2.79755,1.81488,2.79744-.00013-.00011-1.81469-2.79755-1.81476-2.79744.00013Z"/><path class="am" d="m65.09994,170.87878c-.00011,1.81481-2.79755,1.81488-2.79744-.00013.00011-1.81469,2.79755-1.81476,2.79744.00013Z"/><path class="am" d="m55.01188,170.2279c-.00013,2.03612-2.79757,2.03617-2.79744-.00013.00011-1.81469,2.79755-1.81476,2.79744.00013Z"/><path class="am" d="m45.38061,168.96041c-.00011,1.81481-2.79755,1.81488-2.79744-.00013.00011-1.81469,2.79755-1.81476,2.79744.00013Z"/><path class="am" d="m35.46045,166.87076c-.00011,1.81481-2.79755,1.81488-2.79744-.00013.00011-1.81469,2.79755-1.81476,2.79744.00013Z"/><path class="am" d="m26.35186,163.75342c-.00011,1.81481-2.79755,1.81488-2.79744-.00013.00011-1.81469,2.79755-1.81476,2.79744.00013Z"/><path class="am" d="m19.15526,159.40284c-.00011,1.81481-2.79755,1.81488-2.79744-.00013.00011-1.81469,2.79755-1.81476,2.79744.00013Z"/><path class="am" d="m14.97112,153.61349c-.00011,1.81481-2.79755,1.81488-2.79744-.00013.00011-1.81469,2.79755-1.81476,2.79744.00013Z"/></g></g><g id="m"><g id="n"><rect class="ar" x="11.9247" y="58.72382" width="5.06063" height="15.59001" rx="1.52896" ry="1.52896" transform="translate(-50.37948 45.77782) rotate(-60)"/><rect class="ar" x="134.97444" y="58.72382" width="5.06063" height="15.59001" rx="1.52896" ry="1.52896" transform="translate(148.65014 218.86084) rotate(-120)"/></g><g id="o"><path class="ak" d="m106.49674,104.17763c-14.42676,0-26.78809-12.65723-26.78809-23.01904.00293-.94336-.35547-1.81006-1.0083-2.46436-.65283-.65381-1.51904-1.01416-2.43945-1.01416h-.56201c-.92041,0-1.78662.36035-2.43945,1.01416-.65234.6543-1.01074,1.521-1.00879,2.44092,0,10.38525-12.36084,23.04248-26.78711,23.04248-14.77051,0-26.78711-8.02588-26.78711-17.89062,0-3.72314.24023-7.59424,3.11182-10.41504.28955-.28467.37842-.71582.2251-1.0918-.15381-.37598-.51953-.62158-.92578-.62158h-.73975c-.91846,0-1.19141-.30029-1.28125-.39893-.37939-.4165-.50537-1.32568-.37549-2.70215.15283-1.61475,1.64551-2.87988,3.39844-2.87988h27.19336c.02832.00391.12891.01855.15723.02002.63232-.01172,1.22461-.01953,1.8418-.01953,5.21924,0,8.99902.55371,10.92969,1.60156,4.44336,2.41211,9.43213,2.65527,13.75928,2.69385,4.34521-.03857,9.33447-.28174,13.77783-2.69385,1.93066-1.04785,5.70996-1.60156,10.92871-1.60156.61719,0,1.20996.00781,1.76367.02051.00293.00049.00488.00049.00781.00049.05957,0,.19629-.0127.24805-.02002l27.17285-.00146c1.75293,0,3.24609,1.26514,3.39941,2.87988.12988,1.37646.00293,2.28564-.37598,2.70215-.08984.09863-.3623.39893-1.28125.39893h-.73926c-.40625,0-.77148.24561-.92578.62158-.15332.37549-.06445.80713.22461,1.0918,2.87207,2.8208,3.1123,6.69189,3.1123,10.41504,0,9.86475-12.0166,17.89062-26.78711,17.89062Z"/><path class="an" d="m102.85245,69.16704h.005-.005m27.01776.01053c1.24289,0,2.29843.86703,2.40302,1.97394.14807,1.56665-.1123,1.92563-.1087,1.92563h0c-.0058.00345-.14322.08148-.55273.08148h-.73944c-.81216,0-1.5437.49118-1.85117,1.24289-.30743.75171-.12976,1.61475.44962,2.18387,2.59543,2.54956,2.81259,6.19067,2.81259,9.7016,0,9.31348-11.56802,16.89059-25.78705,16.89059-6.57587,0-13.06876-2.6842-18.28262-7.55814-4.62891-4.32706-7.50443-9.86813-7.50436-14.4819.00244-1.18765-.45975-2.30624-1.30151-3.14972-.84171-.84341-1.95932-1.30795-3.14697-1.30795h-.56195c-1.18762,0-2.30524.46451-3.14694,1.30795-.84174.84344-1.30399,1.96201-1.30151,3.17084,0,4.59265-2.87552,10.13373-7.50439,14.46078-5.2139,4.87393-11.70679,7.55814-18.28265,7.55814-14.21902,0-25.78703-7.57712-25.78703-16.89059,0-3.51093.21718-7.15204,2.81259-9.7016.57938-.56912.75703-1.43216.4496-2.18387-.30746-.75171-1.039-1.24289-1.85117-1.24289h-.73944c-.39252,0-.53506-.07169-.54135-.07169-.00012,0-.0002.00003-.00021.00009-.0139-.01889-.2661-.38818-.11984-1.93555.10457-1.10687,1.1601-1.97391,2.403-1.97391h27.0956c.06839.00861.13721.01532.20715.01892.03415.00174.0683.00262.10248.00262.0155,0,.03104-.00018.04657-.00055.54626-.01273,1.12979-.02063,1.7381-.02063,4.98251.00003,8.69547.52594,10.45493,1.48087,4.64627,2.52164,9.78024,2.77512,14.26337,2.81476,4.44739-.03964,9.58136-.29312,14.22766-2.81476,1.75952-.95499,5.47247-1.48087,10.4549-1.48087.60803,0,1.19208.0079,1.7381.02063.0155.00037.03104.00055.04657.00055.03415,0,.06833-.00089.10248-.00262.06812-.00351.13513-.00995.20654-.01892h27.09622m2.29449,3.89944h.005-.005m-2.29449-5.89944h-27.19312c-.07263,0-.14038.01785-.21213.02155-.56067-.01306-1.16034-.02115-1.78467-.02118-3.91589,0-8.82028.31812-11.40894,1.72305-4.08319,2.21603-8.64838,2.53125-13.29147,2.57266-4.6431-.04141-9.20831-.35663-13.2915-2.57266-2.58847-1.40485-7.49316-1.72302-11.40891-1.72305-.62466,0-1.22379.00809-1.7847.02118-.07172-.00369-.1395-.02155-.21213-.02155h-27.1931c-2.19997,0-4.18721,1.59555-4.39415,3.78577-.2345,2.48132.21712,4.19528,2.65256,4.19528h.73944c-3.10378,3.04895-3.41103,7.1398-3.41103,11.12836,0,10.43298,12.44066,18.89059,27.78703,18.89059s27.78705-13.58591,27.78705-24.01892l-.00006-.02524c-.00275-1.34943,1.09909-2.45355,2.44852-2.45355h.56195c1.34946,0,2.45126,1.10413,2.44849,2.45355l-.00006.02524c0,10.43301,12.44067,24.01892,27.78705,24.01892s27.78705-8.45761,27.78705-18.89059c0-3.98856-.30725-8.07941-3.41104-11.12836h.73944c2.43546,0,2.88705-1.71396,2.65256-4.19528-.20694-2.19022-2.19418-3.78577-4.39413-3.78577h0Z"/></g><g id="p"><path id="q" class="ai" d="m26.49324,77.24918c-3.90281,3.2197-5.19579,8.45149-2.93768,12.81136,1.25126,2.41588,3.24034,4.49715,5.85819,5.90422,4.06952,2.18732,9.35518,3.50847,15.13233,3.50847,6.94401,0,13.17793-3.06609,17.44337-7.15808,4.6237-4.43569,8.48852-15.38251,1.86404-16.07636,0,0-18.92484-2.12744-29.73394-1.79903-2.82233.08575-5.52035,1.07206-7.6263,2.80941h0Z"/><path id="r" class="ai" d="m125.46653,77.24918c3.90281,3.2197,5.19579,8.45149,2.93768,12.81136-1.25126,2.41588-3.24034,4.49715-5.85819,5.90422-4.06952,2.18732-9.35518,3.50847-15.13233,3.50847-6.94401,0-13.17793-3.06609-17.44337-7.15808-4.6237-4.43569-8.48852-15.38251-1.86404-16.07636,0,0,18.92484-2.12744,29.73394-1.79903,2.82233.08575,5.52035,1.07206,7.6263,2.80941h0Z"/></g></g><g id="s"><path class="af" d="m165.34261,29.09521c3.59375-.59863,8.29883-1.1123,14.28809-1.1123,7.35742,0,12.74805,1.71143,16.16992,4.7915,3.16602,2.73779,5.04785,6.92969,5.04785,12.06348,0,5.21875-1.54004,9.3252-4.44824,12.31982-3.93652,4.19238-10.35254,6.33105-17.625,6.33105-2.22461,0-4.27734-.08545-5.98926-.51318v23.1001h-7.44336V29.09521Zm7.44336,27.80566c1.62598.42773,3.67969.59912,6.16016.59912,8.9834,0,14.45898-4.36328,14.45898-12.32031,0-7.61426-5.38965-11.29297-13.60352-11.29297-3.25098,0-5.73242.25635-7.01562.59863v22.41553Z"/><path class="af" d="m240.72054,59.04004h-22.41602v20.79004h24.98242v6.24561h-32.42578V28.41113h31.14258v6.24561h-23.69922v18.22314h22.41602v6.16016Z"/><path class="af" d="m265.27523,34.74219h-17.53906v-6.33105h42.69238v6.33105h-17.62402v51.3335h-7.5293v-51.3335Z"/><path class="af" d="m165.34261,103.41064h7.44336v51.41992h24.64062v6.24512h-32.08398v-57.66504Z"/><path class="af" d="m228.39925,161.07568l-.59863-5.21875h-.25684c-2.31055,3.25098-6.75879,6.16016-12.66211,6.16016-8.38477,0-12.66309-5.90332-12.66309-11.89258,0-10.00977,8.89844-15.48535,24.89746-15.40039v-.85547c0-3.42188-.94141-9.58203-9.41113-9.58203-3.85059,0-7.87109,1.19727-10.78027,3.08008l-1.71094-4.96191c3.42188-2.22461,8.38379-3.67969,13.60352-3.67969,12.66211,0,15.74219,8.6416,15.74219,16.94043v15.48535c0,3.59375.1709,7.10156.68457,9.9248h-6.84473Zm-1.1123-21.13281c-8.21387-.1709-17.53906,1.28418-17.53906,9.32617,0,4.87695,3.25098,7.18652,7.10156,7.18652,5.38965,0,8.81152-3.42188,10.00977-6.92969.25684-.77051.42773-1.62598.42773-2.39551v-7.1875Z"/><path class="af" d="m246.36703,161.07568c.1709-2.82324.3418-7.01562.3418-10.69434v-50.05078h7.44434v26.00977h.1709c2.65234-4.62012,7.44336-7.61523,14.11621-7.61523,10.2666,0,17.53906,8.55566,17.4541,21.13281,0,14.80078-9.32617,22.15918-18.56641,22.15918-5.98828,0-10.7793-2.31055-13.85938-7.78613h-.25684l-.34277,6.84473h-6.50195Zm7.78613-16.59766c0,.94043.1709,1.88184.3418,2.7373,1.4541,5.21875,5.81738,8.8125,11.29297,8.8125,7.87109,0,12.57715-6.41699,12.57715-15.91309,0-8.29883-4.27832-15.40039-12.32031-15.40039-5.13281,0-9.92383,3.50781-11.46387,9.24023-.17188.85547-.42773,1.88184-.42773,3.08008v7.44336Z"/></g><g id="t"><g id="u"><g id="v"><path class="ag" d="m119.20182,175.47353c-.94531,0-1.79199-.48926-2.26465-1.30762s-.47266-1.79688,0-2.61523l10.4873-18.16504c.05371-.09277.08203-.19922.08203-.30762v-35.12207h11.33984v35.12207c0,.1084.02832.21484.08203.30762l10.48828,18.16504c.47266.81934.47168,1.79785-.00098,2.61621s-1.31934,1.30664-2.26465,1.30664h-27.94922Z"/><path class="an" d="m137.8462,118.95595v34.12234c0,.28348.07465.56198.2164.80746l3.50003,6.06229,6.98749,12.10266c.62161,1.07663-.1554,2.42245-1.39862,2.42245h-27.94992c-1.24319,0-2.0202-1.34583-1.39859-2.42245l6.98746-12.10266,3.50006-6.06229c.14172-.24548.21637-.52399.21637-.80746v-34.12234h9.33932m2-2h-13.33932v36.01917l-3.44849,5.97293-6.98746,12.10266c-.65344,1.13174-.65344,2.48315,0,3.61493.65341,1.13184,1.82376,1.80753,3.13065,1.80753h27.94992c1.30688,0,2.47723-.67569,3.13068-1.80753.65344-1.13181.65344-2.48318-.00003-3.61496l-6.98746-12.10263-3.44849-5.97299v-36.0191h0Z"/></g><path id="w" class="aj" d="m148.55013,172.05066l-6.98747-12.10263-3.50004-6.06226c-.14174-.24554-.21641-.524-.21641-.80748v-6.59295c-.40349.2923-.85308,1.26214-2.12053,1.77079-2.19733.88185-4.63361-.51326-5.04374-.71123-.49351-.23819-1.23813-.27386-2.17504-.13809v5.67149c0,.28348-.07467.56195-.21641.80748l-3.50004,6.06226-6.98747,12.10263c-.62162,1.07668.15542,2.4225,1.39861,2.4225h27.94994c1.24319,0,2.02023-1.34582,1.39861-2.4225Z"/><line id="x" class="aq" x1="123.3034" y1="117.54774" x2="143.04969" y2="117.54774"/><line id="y" class="aq" x1="128.50687" y1="131.17713" x2="132.03979" y2="131.17713"/><line id="z" class="aq" x1="128.50687" y1="135.82518" x2="132.03979" y2="135.82518"/><line id="aa" class="aq" x1="128.50687" y1="140.47322" x2="132.03979" y2="140.47322"/></g><g id="ab"><circle class="as" cx="130.02481" cy="111.90459" r="1.08696"/></g><g id="ac"><circle class="as" cx="134.87816" cy="113.99215" r="1.08696"/></g><g id="ad"><circle class="as" cx="133.38731" cy="108.60128" r="1.08696"/></g></g></g></svg>